<?xml version="1.0" encoding="UTF-8" standalone="no"?>
<!DOCTYPE svg PUBLIC "-//W3C//DTD SVG 1.1//EN"
 "http://www.w3.org/Graphics/SVG/1.1/DTD/svg11.dtd">
<!-- Generated by graphviz version 14.1.2 (0)
 -->
<!-- Title: vnetviz Pages: 1 -->
<svg width="458pt" height="427pt"
 viewBox="0.00 0.00 458.00 427.00" xmlns="http://www.w3.org/2000/svg" xmlns:xlink="http://www.w3.org/1999/xlink">
<g id="graph0" class="graph" transform="scale(1 1) rotate(0) translate(4 423)">
<title>vnetviz</title>
<polygon fill="white" stroke="none" points="-4,4 -4,-423 453.5,-423 453.5,4 -4,4"/>
<g id="clust1" class="cluster">
<title>cluster_0</title>
<path fill="none" stroke="#999999" d="M20,-114C20,-114 252.25,-114 252.25,-114 258.25,-114 264.25,-120 264.25,-126 264.25,-126 264.25,-399 264.25,-399 264.25,-405 258.25,-411 252.25,-411 252.25,-411 20,-411 20,-411 14,-411 8,-405 8,-399 8,-399 8,-126 8,-126 8,-120 14,-114 20,-114"/>
<text xml:space="preserve" text-anchor="middle" x="136.12" y="-393.7" font-family="Times,serif" font-size="14.00">host</text>
</g>
<g id="clust2" class="cluster">
<title>cluster_1</title>
<path fill="none" stroke="#999999" d="M296.25,-206C296.25,-206 437.5,-206 437.5,-206 443.5,-206 449.5,-212 449.5,-218 449.5,-218 449.5,-353 449.5,-353 449.5,-359 443.5,-365 437.5,-365 437.5,-365 296.25,-365 296.25,-365 290.25,-365 284.25,-359 284.25,-353 284.25,-353 284.25,-218 284.25,-218 284.25,-212 290.25,-206 296.25,-206"/>
<text xml:space="preserve" text-anchor="middle" x="366.88" y="-347.7" font-family="Times,serif" font-size="14.00">demo&#45;web&#45;1 (docker)</text>
</g>
<g id="clust3" class="cluster">
<title>cluster_2</title>
<path fill="none" stroke="#999999" d="M301.88,-107C301.88,-107 431.88,-107 431.88,-107 437.88,-107 443.88,-113 443.88,-119 443.88,-119 443.88,-186 443.88,-186 443.88,-192 437.88,-198 431.88,-198 431.88,-198 301.88,-198 301.88,-198 295.88,-198 289.88,-192 289.88,-186 289.88,-186 289.88,-119 289.88,-119 289.88,-113 295.88,-107 301.88,-107"/>
<text xml:space="preserve" text-anchor="middle" x="366.88" y="-180.7" font-family="Times,serif" font-size="14.00">demo&#45;db&#45;1 (docker)</text>
</g>
<g id="clust4" class="cluster">
<title>cluster_3</title>
<path fill="none" stroke="#999999" d="M300,-8C300,-8 433.75,-8 433.75,-8 439.75,-8 445.75,-14 445.75,-20 445.75,-20 445.75,-87 445.75,-87 445.75,-93 439.75,-99 433.75,-99 433.75,-99 300,-99 300,-99 294,-99 288,-93 288,-87 288,-87 288,-20 288,-20 288,-14 294,-8 300,-8"/>
<text xml:space="preserve" text-anchor="middle" x="366.88" y="-81.7" font-family="Times,serif" font-size="14.00">demo&#45;api&#45;1 (docker)</text>
</g>
<!-- n_NS_5_4026531833__460 -->
<g id="node1" class="node">
<title>n_NS_5_4026531833__460</title>
<path fill="#cde4ff" stroke="black" d="M187.25,-324C187.25,-324 85,-324 85,-324 79,-324 73,-318 73,-312 73,-312 73,-244 73,-244 73,-238 79,-232 85,-232 85,-232 187.25,-232 187.25,-232 193.25,-232 199.25,-238 199.25,-244 199.25,-244 199.25,-312 199.25,-312 199.25,-318 193.25,-324 187.25,-324"/>
<text xml:space="preserve" text-anchor="middle" x="136.12" y="-306.7" font-family="sans-serif" font-size="14.00">br&#45;8c201ea87893</text>
<text xml:space="preserve" text-anchor="middle" x="136.12" y="-285.7" font-family="sans-serif" font-size="14.00">bridge</text>
<text xml:space="preserve" text-anchor="middle" x="136.12" y="-264.7" font-family="sans-serif" font-size="14.00">(demo_frontend)</text>
<text xml:space="preserve" text-anchor="middle" x="136.12" y="-243.7" font-family="sans-serif" font-size="14.00">172.18.0.1/16</text>
</g>
<!-- n_NS_5_4026533069__3 -->
<g id="node5" class="node">
<title>n_NS_5_4026533069__3</title>
<path fill="none" stroke="black" d="M404.38,-332C404.38,-332 328.38,-332 328.38,-332 322.38,-332 316.38,-326 316.38,-320 316.38,-320 316.38,-294 316.38,-294 316.38,-288 322.38,-282 328.38,-282 328.38,-282 404.38,-282 404.38,-282 410.38,-282 416.38,-288 416.38,-294 416.38,-294 416.38,-320 416.38,-320 416.38,-326 410.38,-332 404.38,-332"/>
<text xml:space="preserve" text-anchor="middle" x="366.38" y="-314.7" font-family="sans-serif" font-size="14.00">eth1</text>
<text xml:space="preserve" text-anchor="middle" x="366.38" y="-293.7" font-family="sans-serif" font-size="14.00">172.18.0.2/16</text>
</g>
<!-- n_NS_5_4026531833__460&#45;&gt;n_NS_5_4026533069__3 -->
<g id="edge4" class="edge">
<title>n_NS_5_4026531833__460&#45;&gt;n_NS_5_4026533069__3</title>
<path fill="none" stroke="black" d="M199.5,-285.92C236.19,-290.59 281.94,-296.4 316.09,-300.74"/>
</g>
<!-- n_NS_5_4026531833__461 -->
<g id="node2" class="node">
<title>n_NS_5_4026531833__461</title>
<path fill="#cde4ff" stroke="black" d="M190.62,-214C190.62,-214 81.62,-214 81.62,-214 75.62,-214 69.62,-208 69.62,-202 69.62,-202 69.62,-134 69.62,-134 69.62,-128 75.62,-122 81.62,-122 81.62,-122 190.62,-122 190.62,-122 196.62,-122 202.62,-128 202.62,-134 202.62,-134 202.62,-202 202.62,-202 202.62,-208 196.62,-214 190.62,-214"/>
<text xml:space="preserve" text-anchor="middle" x="136.12" y="-196.7" font-family="sans-serif" font-size="14.00">br&#45;8dad108b2b2b</text>
<text xml:space="preserve" text-anchor="middle" x="136.12" y="-175.7" font-family="sans-serif" font-size="14.00">bridge</text>
<text xml:space="preserve" text-anchor="middle" x="136.12" y="-154.7" font-family="sans-serif" font-size="14.00">(demo_backend)</text>
<text xml:space="preserve" text-anchor="middle" x="136.12" y="-133.7" font-family="sans-serif" font-size="14.00">172.19.0.1/16</text>
</g>
<!-- n_NS_5_4026533069__2 -->
<g id="node4" class="node">
<title>n_NS_5_4026533069__2</title>
<path fill="none" stroke="black" d="M404.38,-264C404.38,-264 328.38,-264 328.38,-264 322.38,-264 316.38,-258 316.38,-252 316.38,-252 316.38,-226 316.38,-226 316.38,-220 322.38,-214 328.38,-214 328.38,-214 404.38,-214 404.38,-214 410.38,-214 416.38,-220 416.38,-226 416.38,-226 416.38,-252 416.38,-252 416.38,-258 410.38,-264 404.38,-264"/>
<text xml:space="preserve" text-anchor="middle" x="366.38" y="-246.7" font-family="sans-serif" font-size="14.00">eth0</text>
<text xml:space="preserve" text-anchor="middle" x="366.38" y="-225.7" font-family="sans-serif" font-size="14.00">172.19.0.4/16</text>
</g>
<!-- n_NS_5_4026531833__461&#45;&gt;n_NS_5_4026533069__2 -->
<g id="edge3" class="edge">
<title>n_NS_5_4026531833__461&#45;&gt;n_NS_5_4026533069__2</title>
<path fill="none" stroke="black" d="M202.84,-188.44C238.92,-199.67 282.94,-213.36 316.06,-223.66"/>
</g>
<!-- n_NS_5_4026532865__2 -->
<g id="node6" class="node">
<title>n_NS_5_4026532865__2</title>
<path fill="none" stroke="black" d="M404.38,-165C404.38,-165 328.38,-165 328.38,-165 322.38,-165 316.38,-159 316.38,-153 316.38,-153 316.38,-127 316.38,-127 316.38,-121 322.38,-115 328.38,-115 328.38,-115 404.38,-115 404.38,-115 410.38,-115 416.38,-121 416.38,-127 416.38,-127 416.38,-153 416.38,-153 416.38,-159 410.38,-165 404.38,-165"/>
<text xml:space="preserve" text-anchor="middle" x="366.38" y="-147.7" font-family="sans-serif" font-size="14.00">eth0</text>
<text xml:space="preserve" text-anchor="middle" x="366.38" y="-126.7" font-family="sans-serif" font-size="14.00">172.19.0.3/16</text>
</g>
<!-- n_NS_5_4026531833__461&#45;&gt;n_NS_5_4026532865__2 -->
<g id="edge2" class="edge">
<title>n_NS_5_4026531833__461&#45;&gt;n_NS_5_4026532865__2</title>
<path fill="none" stroke="black" d="M202.84,-159.94C238.92,-155.51 282.94,-150.11 316.06,-146.05"/>
</g>
<!-- n_NS_5_4026533003__2 -->
<g id="node7" class="node">
<title>n_NS_5_4026533003__2</title>
<path fill="none" stroke="black" d="M404.38,-66C404.38,-66 328.38,-66 328.38,-66 322.38,-66 316.38,-60 316.38,-54 316.38,-54 316.38,-28 316.38,-28 316.38,-22 322.38,-16 328.38,-16 328.38,-16 404.38,-16 404.38,-16 410.38,-16 416.38,-22 416.38,-28 416.38,-28 416.38,-54 416.38,-54 416.38,-60 410.38,-66 404.38,-66"/>
<text xml:space="preserve" text-anchor="middle" x="366.38" y="-48.7" font-family="sans-serif" font-size="14.00">eth0</text>
<text xml:space="preserve" text-anchor="middle" x="366.38" y="-27.7" font-family="sans-serif" font-size="14.00">172.19.0.2/16</text>
</g>
<!-- n_NS_5_4026531833__461&#45;&gt;n_NS_5_4026533003__2 -->
<g id="edge1" class="edge">
<title>n_NS_5_4026531833__461&#45;&gt;n_NS_5_4026533003__2</title>
<path fill="none" stroke="black" d="M202.84,-131.44C240.24,-110.63 286.16,-85.08 319.64,-66.45"/>
</g>
<!-- pub_NS_5_4026533069__8080 -->
<g id="node3" class="node">
<title>pub_NS_5_4026533069__8080</title>
<polygon fill="none" stroke="black" points="250.25,-378 16,-378 16,-342 256.25,-342 256.25,-372 250.25,-378"/>
<polyline fill="none" stroke="black" points="250.25,-378 250.25,-372"/>
<polyline fill="none" stroke="black" points="256.25,-372 250.25,-372"/>
<text xml:space="preserve" text-anchor="middle" x="136.12" y="-357.2" font-family="sans-serif" font-size="14.00">host:8080 &#160;==&gt; &#160;demo&#45;web&#45;1:80/tcp</text>
</g>
</g>
</svg>
