<?xml version="1.0" encoding="UTF-8" standalone="no"?>
<!DOCTYPE svg PUBLIC "-//W3C//DTD SVG 1.1//EN"
 "http://www.w3.org/Graphics/SVG/1.1/DTD/svg11.dtd">
<!-- Generated by graphviz version 14.1.2 (0)
 -->
<!-- Title: vnetviz Pages: 1 -->
<svg width="252pt" height="381pt"
 viewBox="0.00 0.00 252.00 381.00" xmlns="http://www.w3.org/2000/svg" xmlns:xlink="http://www.w3.org/1999/xlink">
<g id="graph0" class="graph" transform="scale(1 1) rotate(0) translate(4 377)">
<title>vnetviz</title>
<polygon fill="white" stroke="none" points="-4,4 -4,-377 248,-377 248,4 -4,4"/>
<g id="clust1" class="cluster">
<title>cluster_0</title>
<path fill="none" stroke="#999999" d="M20,-107C20,-107 70,-107 70,-107 76,-107 82,-113 82,-119 82,-119 82,-254 82,-254 82,-260 76,-266 70,-266 70,-266 20,-266 20,-266 14,-266 8,-260 8,-254 8,-254 8,-119 8,-119 8,-113 14,-107 20,-107"/>
<text xml:space="preserve" text-anchor="middle" x="45" y="-248.7" font-family="Times,serif" font-size="14.00">host</text>
</g>
<g id="clust2" class="cluster">
<title>cluster_1</title>
<path fill="none" stroke="#999999" d="M116.25,-274C116.25,-274 229.75,-274 229.75,-274 235.75,-274 241.75,-280 241.75,-286 241.75,-286 241.75,-353 241.75,-353 241.75,-359 235.75,-365 229.75,-365 229.75,-365 116.25,-365 116.25,-365 110.25,-365 104.25,-359 104.25,-353 104.25,-353 104.25,-286 104.25,-286 104.25,-280 110.25,-274 116.25,-274"/>
<text xml:space="preserve" text-anchor="middle" x="173" y="-347.7" font-family="Times,serif" font-size="14.00">lab&#45;hostA (netns)</text>
</g>
<g id="clust3" class="cluster">
<title>cluster_2</title>
<path fill="none" stroke="#999999" d="M115.88,-8C115.88,-8 230.12,-8 230.12,-8 236.12,-8 242.12,-14 242.12,-20 242.12,-20 242.12,-87 242.12,-87 242.12,-93 236.12,-99 230.12,-99 230.12,-99 115.88,-99 115.88,-99 109.88,-99 103.88,-93 103.88,-87 103.88,-87 103.88,-20 103.88,-20 103.88,-14 109.88,-8 115.88,-8"/>
<text xml:space="preserve" text-anchor="middle" x="173" y="-81.7" font-family="Times,serif" font-size="14.00">lab&#45;hostB (netns)</text>
</g>
<g id="clust4" class="cluster">
<title>cluster_3</title>
<path fill="none" stroke="#999999" d="M114,-107C114,-107 232,-107 232,-107 238,-107 244,-113 244,-119 244,-119 244,-254 244,-254 244,-260 238,-266 232,-266 232,-266 114,-266 114,-266 108,-266 102,-260 102,-254 102,-254 102,-119 102,-119 102,-113 108,-107 114,-107"/>
<text xml:space="preserve" text-anchor="middle" x="173" y="-248.7" font-family="Times,serif" font-size="14.00">lab&#45;router (netns)</text>
</g>
<!-- n_NS_5_4026531833__472 -->
<g id="node1" class="node">
<title>n_NS_5_4026531833__472</title>
<path fill="#cde4ff" stroke="black" d="M62,-233C62,-233 28,-233 28,-233 22,-233 16,-227 16,-221 16,-221 16,-195 16,-195 16,-189 22,-183 28,-183 28,-183 62,-183 62,-183 68,-183 74,-189 74,-195 74,-195 74,-221 74,-221 74,-227 68,-233 62,-233"/>
<text xml:space="preserve" text-anchor="middle" x="45" y="-215.7" font-family="sans-serif" font-size="14.00">lanA</text>
<text xml:space="preserve" text-anchor="middle" x="45" y="-194.7" font-family="sans-serif" font-size="14.00">bridge</text>
</g>
<!-- n_NS_5_4026532842__2 -->
<g id="node3" class="node">
<title>n_NS_5_4026532842__2</title>
<path fill="none" stroke="black" d="M206.75,-332C206.75,-332 138.25,-332 138.25,-332 132.25,-332 126.25,-326 126.25,-320 126.25,-320 126.25,-294 126.25,-294 126.25,-288 132.25,-282 138.25,-282 138.25,-282 206.75,-282 206.75,-282 212.75,-282 218.75,-288 218.75,-294 218.75,-294 218.75,-320 218.75,-320 218.75,-326 212.75,-332 206.75,-332"/>
<text xml:space="preserve" text-anchor="middle" x="172.5" y="-314.7" font-family="sans-serif" font-size="14.00">eth0</text>
<text xml:space="preserve" text-anchor="middle" x="172.5" y="-293.7" font-family="sans-serif" font-size="14.00">10.0.1.10/24</text>
</g>
<!-- n_NS_5_4026531833__472&#45;&gt;n_NS_5_4026532842__2 -->
<g id="edge3" class="edge">
<title>n_NS_5_4026531833__472&#45;&gt;n_NS_5_4026532842__2</title>
<path fill="none" stroke="black" d="M65.51,-233.45C75.56,-245.47 88.51,-259.47 102,-270 109.33,-275.72 117.67,-281.01 125.96,-285.7"/>
</g>
<!-- n_NS_5_4026532972__2 -->
<g id="node5" class="node">
<title>n_NS_5_4026532972__2</title>
<path fill="none" stroke="black" d="M203,-233C203,-233 142,-233 142,-233 136,-233 130,-227 130,-221 130,-221 130,-195 130,-195 130,-189 136,-183 142,-183 142,-183 203,-183 203,-183 209,-183 215,-189 215,-195 215,-195 215,-221 215,-221 215,-227 209,-233 203,-233"/>
<text xml:space="preserve" text-anchor="middle" x="172.5" y="-215.7" font-family="sans-serif" font-size="14.00">eth0</text>
<text xml:space="preserve" text-anchor="middle" x="172.5" y="-194.7" font-family="sans-serif" font-size="14.00">10.0.1.1/24</text>
</g>
<!-- n_NS_5_4026531833__472&#45;&gt;n_NS_5_4026532972__2 -->
<g id="edge1" class="edge">
<title>n_NS_5_4026531833__472&#45;&gt;n_NS_5_4026532972__2</title>
<path fill="none" stroke="black" d="M74.48,-208C90.82,-208 111.64,-208 129.8,-208"/>
</g>
<!-- n_NS_5_4026531833__473 -->
<g id="node2" class="node">
<title>n_NS_5_4026531833__473</title>
<path fill="#cde4ff" stroke="black" d="M62,-165C62,-165 28,-165 28,-165 22,-165 16,-159 16,-153 16,-153 16,-127 16,-127 16,-121 22,-115 28,-115 28,-115 62,-115 62,-115 68,-115 74,-121 74,-127 74,-127 74,-153 74,-153 74,-159 68,-165 62,-165"/>
<text xml:space="preserve" text-anchor="middle" x="45" y="-147.7" font-family="sans-serif" font-size="14.00">lanB</text>
<text xml:space="preserve" text-anchor="middle" x="45" y="-126.7" font-family="sans-serif" font-size="14.00">bridge</text>
</g>
<!-- n_NS_5_4026533048__2 -->
<g id="node4" class="node">
<title>n_NS_5_4026533048__2</title>
<path fill="none" stroke="black" d="M206.75,-66C206.75,-66 138.25,-66 138.25,-66 132.25,-66 126.25,-60 126.25,-54 126.25,-54 126.25,-28 126.25,-28 126.25,-22 132.25,-16 138.25,-16 138.25,-16 206.75,-16 206.75,-16 212.75,-16 218.75,-22 218.75,-28 218.75,-28 218.75,-54 218.75,-54 218.75,-60 212.75,-66 206.75,-66"/>
<text xml:space="preserve" text-anchor="middle" x="172.5" y="-48.7" font-family="sans-serif" font-size="14.00">eth0</text>
<text xml:space="preserve" text-anchor="middle" x="172.5" y="-27.7" font-family="sans-serif" font-size="14.00">10.0.2.10/24</text>
</g>
<!-- n_NS_5_4026531833__473&#45;&gt;n_NS_5_4026533048__2 -->
<g id="edge4" class="edge">
<title>n_NS_5_4026531833__473&#45;&gt;n_NS_5_4026533048__2</title>
<path fill="none" stroke="black" d="M74.48,-117.54C93.86,-102.25 119.53,-81.99 139.6,-66.16"/>
</g>
<!-- n_NS_5_4026532972__3 -->
<g id="node6" class="node">
<title>n_NS_5_4026532972__3</title>
<path fill="none" stroke="black" d="M203,-165C203,-165 142,-165 142,-165 136,-165 130,-159 130,-153 130,-153 130,-127 130,-127 130,-121 136,-115 142,-115 142,-115 203,-115 203,-115 209,-115 215,-121 215,-127 215,-127 215,-153 215,-153 215,-159 209,-165 203,-165"/>
<text xml:space="preserve" text-anchor="middle" x="172.5" y="-147.7" font-family="sans-serif" font-size="14.00">eth1</text>
<text xml:space="preserve" text-anchor="middle" x="172.5" y="-126.7" font-family="sans-serif" font-size="14.00">10.0.2.1/24</text>
</g>
<!-- n_NS_5_4026531833__473&#45;&gt;n_NS_5_4026532972__3 -->
<g id="edge2" class="edge">
<title>n_NS_5_4026531833__473&#45;&gt;n_NS_5_4026532972__3</title>
<path fill="none" stroke="black" d="M74.48,-140C90.82,-140 111.64,-140 129.8,-140"/>
</g>
</g>
</svg>
